<?xml version="1.0" encoding="UTF-8" standalone="no"?>
<!-- Created with Inkscape (http://www.inkscape.org/) -->
<svg
   xmlns:dc="http://purl.org/dc/elements/1.1/"
   xmlns:cc="http://creativecommons.org/ns#"
   xmlns:rdf="http://www.w3.org/1999/02/22-rdf-syntax-ns#"
   xmlns:svg="http://www.w3.org/2000/svg"
   xmlns="http://www.w3.org/2000/svg"
   xmlns:sodipodi="http://sodipodi.sourceforge.net/DTD/sodipodi-0.dtd"
   xmlns:inkscape="http://www.inkscape.org/namespaces/inkscape"
   width="423.086"
   height="99.259651"
   id="svg2395"
   sodipodi:version="0.32"
   inkscape:version="0.46"
   version="1.0"
   sodipodi:docname="Der Spiegel logo.svg"
   inkscape:output_extension="org.inkscape.output.svg.inkscape">
  <defs
     id="defs2397">
    <inkscape:perspective
       sodipodi:type="inkscape:persp3d"
       inkscape:vp_x="0 : 526.18109 : 1"
       inkscape:vp_y="0 : 1000 : 0"
       inkscape:vp_z="744.09448 : 526.18109 : 1"
       inkscape:persp3d-origin="372.04724 : 350.78739 : 1"
       id="perspective2403" />
  </defs>
  <sodipodi:namedview
     id="base"
     pagecolor="#ffffff"
     bordercolor="#666666"
     borderopacity="1.0"
     gridtolerance="10000"
     guidetolerance="10"
     objecttolerance="10"
     inkscape:pageopacity="0.0"
     inkscape:pageshadow="2"
     inkscape:zoom="1"
     inkscape:cx="211.543"
     inkscape:cy="49.629826"
     inkscape:document-units="px"
     inkscape:current-layer="layer1"
     showgrid="false"
     inkscape:window-width="1280"
     inkscape:window-height="750"
     inkscape:window-x="-8"
     inkscape:window-y="-8" />
  <metadata
     id="metadata2400">
    <rdf:RDF>
      <cc:Work
         rdf:about="">
        <dc:format>image/svg+xml</dc:format>
        <dc:type
           rdf:resource="http://purl.org/dc/dcmitype/StillImage" />
      </cc:Work>
    </rdf:RDF>
  </metadata>
  <g
     inkscape:label="Layer 1"
     inkscape:groupmode="layer"
     id="layer1"
     transform="translate(-118.88557,-478.87522)">
    <polygon
       style="fill:#e0572f;fill-rule:evenodd"
       id="polygon7"
       points="2.835,74.432 189.921,74.432 189.921,118.324 2.835,118.324 2.835,74.432 "
       clip-rule="evenodd"
       transform="matrix(2.261452,0,0,2.261452,112.47435,310.55082)" />
    <path
       style="fill-rule:evenodd"
       id="path9"
       d="M 361.05089,511.58712 L 361.05089,545.14028 L 364.97677,545.14028 L 364.97677,553.20462 L 361.05089,553.20462 L 352.76267,553.20462 L 348.83679,553.20462 L 348.83679,545.14028 L 352.76267,545.14028 L 352.76267,511.58712 L 348.83679,511.58712 L 348.83679,503.90497 L 364.97903,503.90497 L 364.97903,511.58712 L 361.05089,511.58712 L 361.05089,511.58712 z M 183.13116,508.68568 C 183.13116,507.3582 182.50021,506.16416 181.45316,505.30028 C 180.40611,504.43641 178.94521,503.9027 177.28757,503.9027 L 151.16101,503.9027 L 151.16101,511.58486 L 155.0394,511.58486 L 155.0394,545.13802 L 151.16327,545.1335 L 151.16327,553.20236 L 177.92303,553.20236 C 180.22745,553.20236 181.53005,552.43799 182.25598,551.20549 C 182.9819,549.96848 183.13116,548.26335 183.13116,546.38182 L 183.11533,546.37729 L 183.13116,546.37729 L 183.13116,508.68568 L 183.13116,508.68568 z M 174.58061,511.58712 L 174.58061,545.14028 L 163.32536,545.14028 L 163.32536,511.58712 L 174.58061,511.58712 L 174.58061,511.58712 z M 414.73324,545.14028 L 426.58551,545.14028 L 426.58551,531.15094 L 418.79481,531.15094 L 418.79481,523.96631 L 434.87599,523.96631 L 434.87599,531.15094 L 434.87373,531.15094 L 434.87373,553.20462 L 426.58551,553.20462 L 426.58551,553.20462 L 411.55137,553.20462 C 409.66532,553.2001 408.38986,552.71841 407.58026,551.86584 C 406.7684,551.00875 406.44049,549.76721 406.44049,548.23847 L 406.39979,508.70151 L 406.39753,508.70151 C 406.39753,508.65628 406.39979,508.61105 406.39979,508.56582 L 406.39979,508.54094 L 406.40205,508.54094 C 406.50834,506.04656 408.98915,504.03387 412.09186,503.90723 L 412.09186,503.90497 L 412.19589,503.90497 C 412.26599,503.9027 412.3361,503.9027 412.40394,503.9027 L 428.92837,503.9027 C 432.24366,503.9027 434.8873,506.05561 434.8873,508.70829 L 434.87599,508.70829 L 434.87599,518.6926 L 426.58777,518.6926 L 426.58777,511.59164 L 414.7355,511.59164 L 414.7355,545.14028 L 414.73324,545.14028 z M 313.80464,503.90497 L 340.16186,503.90497 L 340.16186,503.9027 C 340.23196,503.9027 340.30433,503.9027 340.37217,503.90497 L 340.46489,503.90497 L 340.46489,503.90723 C 343.42061,504.02482 345.81323,505.84981 346.13209,508.17459 L 346.16828,508.17459 L 346.16828,508.70377 L 346.16828,526.34083 L 346.16828,526.34535 C 346.16828,528.99804 343.48167,531.15094 340.16412,531.15094 L 325.97351,531.15094 L 325.97351,545.14028 L 329.89939,545.14028 L 329.89939,553.20462 L 325.97351,553.20462 L 317.68529,553.20462 L 313.75941,553.20462 L 313.75941,545.14028 L 317.68529,545.14028 L 317.68529,511.58712 L 313.8069,511.58712 L 313.8069,503.90497 L 313.80464,503.90497 z M 337.88232,511.58712 L 325.97125,511.58486 L 325.97125,523.46653 L 337.88232,523.46653 L 337.88232,511.58712 L 337.88232,511.58712 z M 308.43143,547.60526 C 308.43143,549.1521 307.85928,550.55194 306.93435,551.5628 C 306.00941,552.5782 304.73169,553.20688 303.32055,553.20688 L 285.05254,553.20688 C 283.64139,553.20688 282.36593,552.58046 281.44326,551.5628 C 280.57034,550.60847 280.00271,549.30588 279.94392,547.86081 L 279.94392,547.72286 L 279.94392,536.1691 L 288.23214,536.1691 L 288.23214,545.14028 L 300.14094,545.14028 L 300.14094,531.15094 L 279.95296,531.15094 L 279.95296,523.63613 L 279.94392,508.04795 L 279.9507,508.04795 C 279.95296,506.87425 280.55677,505.81363 281.52919,505.04474 C 282.50388,504.27584 283.85171,503.79868 285.33974,503.79868 L 285.35105,503.86426 L 285.35105,503.79868 L 303.04013,503.79868 L 303.04013,503.92532 L 303.05143,503.79868 C 304.53947,503.79868 305.88729,504.27358 306.86198,505.04474 C 307.83666,505.81589 308.44047,506.87877 308.44047,508.05473 L 308.43143,508.05699 L 308.43143,518.3466 L 300.14321,518.3466 L 300.14094,511.5826 L 288.22988,511.5826 L 288.39949,523.46426 L 308.43143,523.46426 L 308.43143,547.60526 L 308.43143,547.60526 z M 246.25507,545.14028 L 250.18095,545.14028 C 250.18095,540.47491 250.18095,535.81179 250.18095,531.15094 L 238.26988,531.15094 L 238.26988,545.14028 L 242.19576,545.14028 L 242.19576,553.20462 C 236.81577,553.20462 231.43577,553.20462 226.05578,553.20462 L 226.05578,545.14028 L 229.98166,545.14028 L 229.98166,511.58712 L 226.10327,511.58712 L 226.10327,503.90497 L 252.46049,503.90497 L 252.46049,503.9027 C 252.5306,503.9027 252.6007,503.9027 252.67081,503.90497 L 252.76126,503.90497 L 252.76126,503.90723 C 254.30131,503.96829 255.68532,504.49068 256.7075,505.30933 C 257.79526,506.17772 258.46691,507.38082 258.46691,508.70603 L 258.46691,509.55407 L 258.46691,509.88651 L 258.46691,509.88651 L 258.46691,523.03233 L 258.46691,523.42582 L 258.44882,523.42582 C 258.32896,524.59499 257.68897,525.64656 256.70976,526.43129 C 256.08334,526.93107 255.32123,527.3223 254.46866,527.56201 C 255.31897,527.80173 256.08334,528.19522 256.70976,528.695 C 257.79299,529.5634 258.46465,530.75971 258.46691,532.08492 L 258.46691,532.08944 L 258.46691,545.14028 L 262.39505,545.14028 L 262.39505,553.20462 L 246.25281,553.20462 L 246.25281,545.14028 L 246.25507,545.14028 z M 250.18095,511.58712 L 238.26988,511.58712 L 238.26988,523.46653 L 250.18095,523.42356 L 250.18095,511.58712 L 250.18095,511.58712 z M 188.85037,545.14028 L 193.30769,545.14028 L 193.30769,511.58712 L 188.85037,511.58712 L 188.85037,503.90497 L 221.18913,503.90497 L 221.18687,518.59988 L 212.94388,518.59988 L 212.94388,511.58712 L 201.59591,511.58712 L 201.59591,523.46653 L 216.32023,523.46653 L 216.32023,531.15094 L 201.59591,531.15094 L 201.59591,545.14028 L 212.9484,545.14028 L 212.9484,536.1691 L 221.23662,536.1691 L 221.23662,553.20462 L 188.85263,553.19557 L 188.85263,545.14028 L 188.85037,545.14028 z M 369.03382,545.14028 L 373.4934,545.14028 L 373.4934,511.58712 L 369.03382,511.58712 L 369.03382,503.90497 L 401.37484,503.90497 L 401.35449,518.59988 L 393.12733,518.59988 L 393.12733,511.58712 L 381.77936,511.58712 L 381.77936,523.46653 L 396.50367,523.46653 L 396.50367,531.15094 L 381.77936,531.15094 L 381.77936,545.14028 L 393.10019,545.14028 L 393.10019,536.1691 L 401.38841,536.1691 L 401.38615,553.20462 L 369.03155,553.19557 L 369.03155,545.14028 L 369.03382,545.14028 z M 440.25825,545.14028 L 444.71557,545.14028 L 444.71557,511.58712 L 440.25825,511.58712 L 440.25825,503.90497 L 472.59701,503.90497 L 472.59475,518.62928 L 464.34949,518.59988 L 464.34949,511.58712 L 453.00153,511.58712 L 453.00153,523.46653 L 467.72584,523.46653 L 467.72584,531.15094 L 453.00153,531.15094 L 453.00153,545.14028 L 464.35402,545.14028 L 464.35402,536.1691 L 472.64224,536.1691 L 472.64224,553.20462 L 440.25825,553.19557 L 440.25825,545.14028 L 440.25825,545.14028 z M 478.52654,545.14028 L 482.98612,545.14028 L 482.98612,511.58712 L 478.52654,511.58712 L 478.52654,503.90497 L 494.66878,503.90497 L 494.66878,511.58712 L 491.27208,511.58712 L 491.27208,545.14028 L 502.59517,545.14028 L 502.59517,536.1691 L 510.88113,536.1691 L 510.88113,553.20462 L 478.52654,553.19557 L 478.52654,545.14028 L 478.52654,545.14028 z"
       clip-rule="evenodd" />
    <path
       style="fill:#ffffff;fill-rule:evenodd"
       id="path11"
       d="M 354.13989,511.58712 L 354.13989,545.14028 L 358.06804,545.14028 L 358.06804,553.20462 L 354.13989,553.20462 L 345.85393,553.20462 L 341.92805,553.20462 L 341.92805,545.14028 L 345.85393,545.14028 L 345.85393,511.58712 L 341.92805,511.58712 L 341.92805,503.90497 L 358.0703,503.90497 L 358.0703,511.58712 L 354.13989,511.58712 L 354.13989,511.58712 z M 176.22242,508.68568 C 176.22242,507.3582 175.59148,506.16416 174.54443,505.30028 C 173.49737,504.43641 172.03648,503.9027 170.37883,503.9027 L 144.25228,503.9027 L 144.25228,511.58486 L 148.13067,511.58486 L 148.13067,545.13802 L 144.25454,545.1335 L 144.25454,553.20236 L 171.0143,553.20236 C 173.31872,553.20236 174.61905,552.43799 175.34724,551.20549 C 176.07317,549.96848 176.22242,548.26335 176.22242,546.38182 L 176.20433,546.37729 L 176.22242,546.37729 L 176.22242,508.68568 L 176.22242,508.68568 z M 167.67187,511.58712 L 167.67187,545.14028 L 156.41663,545.14028 L 156.41663,511.58712 L 167.67187,511.58712 L 167.67187,511.58712 z M 407.82676,545.14028 L 419.67903,545.14028 L 419.67903,531.15094 L 411.88607,531.15094 L 411.88607,523.96631 L 427.96725,523.96631 L 427.96725,531.15094 L 427.96499,531.15094 L 427.96499,553.20462 L 419.67903,553.20462 L 419.67903,553.20462 L 404.64264,553.20462 C 402.75885,553.2001 401.48339,552.71841 400.67153,551.86584 C 399.86193,551.00875 399.53402,549.76721 399.53402,548.23847 L 399.49331,508.70151 L 399.48879,508.70151 C 399.48879,508.65628 399.49105,508.61105 399.49105,508.56582 L 399.49105,508.54094 L 399.49331,508.54094 C 399.5996,506.04656 402.08041,504.03387 405.18539,503.90723 L 405.18539,503.90497 L 405.28941,503.90497 C 405.35726,503.9027 405.42736,503.9027 405.49521,503.9027 L 422.01964,503.9027 C 425.33719,503.9027 427.98082,506.05561 427.98082,508.70829 L 427.96725,508.70829 L 427.96725,518.6926 L 419.68129,518.6926 L 419.68129,511.59164 L 407.82902,511.59164 L 407.82902,545.14028 L 407.82676,545.14028 z M 306.8959,503.90497 L 333.25538,503.90497 L 333.25538,503.9027 C 333.32549,503.9027 333.39559,503.9027 333.46344,503.90497 L 333.55616,503.90497 L 333.55616,503.90723 C 336.51188,504.02482 338.90449,505.84981 339.22336,508.17459 L 339.2618,508.17459 L 339.2618,508.70377 L 339.2618,526.34083 L 339.2618,526.34535 C 339.2618,528.99804 336.57293,531.15094 333.25538,531.15094 L 319.06251,531.15094 L 319.06251,545.14028 L 322.98839,545.14028 L 322.98839,553.20462 L 319.06251,553.20462 L 310.77429,553.20462 L 306.84841,553.20462 L 306.84841,545.14028 L 310.77429,545.14028 L 310.77429,511.58712 L 306.8959,511.58712 L 306.8959,503.90497 L 306.8959,503.90497 z M 330.97132,511.58712 L 319.06251,511.58486 L 319.06251,523.46653 L 330.97358,523.46653 L 330.97358,511.58712 L 330.97132,511.58712 z M 301.52269,547.60526 C 301.52269,549.1521 300.95054,550.55194 300.02561,551.5628 C 299.10068,552.5782 297.82296,553.20688 296.41181,553.20688 L 278.1438,553.20688 C 276.73265,553.20688 275.4572,552.58046 274.53226,551.5628 C 273.65934,550.60847 273.09398,549.30588 273.03292,547.86081 L 273.03292,547.72286 L 273.03292,536.1691 L 281.32114,536.1691 L 281.32114,545.14028 L 293.22995,545.14028 L 293.22995,531.15094 L 273.04197,531.15094 L 273.04197,523.63613 L 273.03744,508.05021 L 273.04423,508.05021 C 273.04649,506.87651 273.6503,505.81589 274.62046,505.047 C 275.59741,504.27811 276.94297,503.80094 278.43101,503.80094 L 278.44457,503.86652 L 278.44457,503.80094 L 296.13139,503.80094 L 296.13139,503.92758 L 296.1427,503.80094 C 297.63073,503.80094 298.9763,504.27584 299.95324,505.047 C 300.92793,505.81815 301.53174,506.88104 301.53174,508.05699 L 301.52269,508.05925 L 301.52269,518.34886 L 293.23447,518.34886 L 293.23221,511.58486 L 281.32114,511.58486 L 281.49075,523.46653 L 301.52269,523.46653 L 301.52269,547.60526 L 301.52269,547.60526 z M 239.34407,545.14028 L 243.26995,545.14028 C 243.26995,540.47491 243.26995,535.81179 243.26995,531.15094 L 231.36114,531.15094 L 231.36114,545.14028 L 235.28702,545.14028 L 235.28702,553.20462 C 229.90703,553.20462 224.52704,553.20462 219.14478,553.20462 L 219.14478,545.14028 L 223.07066,545.14028 L 223.07066,511.58712 L 219.19227,511.58712 L 219.19227,503.90497 L 245.54949,503.90497 L 245.54949,503.9027 C 245.6196,503.9027 245.6897,503.9027 245.75981,503.90497 L 245.85253,503.90497 L 245.85253,503.90723 C 247.39032,503.96829 248.77659,504.49068 249.79876,505.30933 C 250.88426,506.17772 251.55817,507.38082 251.55817,508.70603 L 251.55817,509.55407 L 251.55817,509.88651 L 251.55817,509.88651 L 251.55817,523.03233 L 251.55817,523.42582 L 251.53782,523.42582 C 251.42022,524.59499 250.77797,525.64656 249.79876,526.43129 C 249.1746,526.93107 248.41023,527.3223 247.55992,527.56201 C 248.41023,527.80173 249.1746,528.19522 249.79876,528.695 C 250.882,529.5634 251.55591,530.75971 251.55817,532.08492 L 251.55817,532.08944 L 251.55817,545.14028 L 255.48405,545.14028 L 255.48405,553.20462 L 239.34181,553.20462 L 239.34181,545.14028 L 239.34407,545.14028 z M 243.26995,511.58712 L 231.36114,511.58712 L 231.36114,523.46653 L 243.26995,523.42356 L 243.26995,511.58712 L 243.26995,511.58712 z M 181.94163,545.14028 L 186.39896,545.14028 L 186.39896,511.58712 L 181.94163,511.58712 L 181.94163,503.90497 L 214.2804,503.90497 L 214.27814,518.59988 L 206.03514,518.59988 L 206.03514,511.58712 L 194.68718,511.58712 L 194.68718,523.46653 L 209.41149,523.46653 L 209.41149,531.15094 L 194.68718,531.15094 L 194.68718,545.14028 L 206.03741,545.14028 L 206.03741,536.1691 L 214.32563,536.1691 L 214.32563,553.20462 L 181.94163,553.19557 L 181.94163,545.14028 L 181.94163,545.14028 z M 362.12734,545.14028 L 366.58466,545.14028 L 366.58466,511.58712 L 362.12734,511.58712 L 362.12734,503.90497 L 394.4661,503.90497 L 394.44801,518.59988 L 386.21859,518.59988 L 386.21859,511.58712 L 374.87062,511.58712 L 374.87062,523.46653 L 389.59494,523.46653 L 389.59494,531.15094 L 374.87062,531.15094 L 374.87062,545.14028 L 386.19145,545.14028 L 386.19145,536.1691 L 394.47967,536.1691 L 394.47741,553.20462 L 362.12508,553.19557 L 362.12508,545.14028 L 362.12734,545.14028 z M 433.34951,545.14028 L 437.80683,545.14028 L 437.80683,511.58712 L 433.34951,511.58712 L 433.34951,503.90497 L 465.68827,503.90497 L 465.68601,518.62928 L 457.44302,518.59988 L 457.44302,511.58712 L 446.09279,511.58712 L 446.09279,523.46653 L 460.81711,523.46653 L 460.81711,531.15094 L 446.09279,531.15094 L 446.09279,545.14028 L 457.44528,545.14028 L 457.44528,536.1691 L 465.7335,536.1691 L 465.7335,553.20462 L 433.34951,553.19557 L 433.34951,545.14028 L 433.34951,545.14028 z M 471.62006,545.14028 L 476.07738,545.14028 L 476.07738,511.58712 L 471.6178,511.58712 L 471.6178,503.90497 L 487.76004,503.90497 L 487.76004,511.58712 L 484.3656,511.58712 L 484.3656,545.14028 L 495.68643,545.14028 L 495.68643,536.1691 L 503.97465,536.1691 L 503.97465,553.20462 L 471.62006,553.19557 L 471.62006,545.14028 L 471.62006,545.14028 z"
       clip-rule="evenodd" />
  </g>
</svg>
