<?xml version="1.0" encoding="UTF-8" standalone="no"?>
<svg
   xmlns:svg="http://www.w3.org/2000/svg"
   xmlns="http://www.w3.org/2000/svg"
   version="1.1"
   width="642.77655"
   height="140.83325"
   id="svg4940">
  <defs
     id="defs4942" />
  <g
     transform="translate(-28.611736,-461.94556)"
     id="layer1">
    <path
       d="m 33.611813,566.18051 c 0,-2.59269 1.63667,-1.19912 4.488621,-2.75473 0,0 1.587981,-0.98846 1.587981,-4.29413 l 0,-64.86569 c -0.09718,-5.88213 0.615757,-8.70169 -2.592641,-10.38689 -2.106646,-0.93985 -3.483961,-2.54407 -3.467712,-4.81272 0.01806,-2.00926 1.15041,-3.69453 2.78708,-4.50476 l 16.949573,-7.00018 c 0,0 1.085768,-0.58345 3.40307,-0.58345 2.171282,0 3.937501,1.70144 3.937501,3.84046 l 0,88.31323 c 0,3.30567 1.490883,4.29413 1.490883,4.29413 2.171335,1.37735 3.532396,0.89123 3.532396,2.75473 l 0.04859,4.40755 c 0,2.59269 -2.122625,2.85195 -3.516188,2.85195 -4.488579,0 -8.977205,-0.081 -13.465835,-0.081 -4.504833,0 -7.162334,0.081 -11.650768,0.081 -1.393755,0 -3.532628,-0.26106 -3.532628,-2.85195 l 0,-4.40755 M 178.1215,512.65782 c 0,3.8404 -0.50243,6.91921 1.79867,6.91921 2.56018,0 5.29885,-0.76159 7.43772,-3.71077 2.6575,-3.3867 4.01861,-9.34988 4.01861,-15.05375 0,-9.85221 -3.67841,-19.47751 -9.65769,-19.47751 -2.56042,0 -3.59731,0.66437 -3.59731,2.59265 l 0,28.73017 z m 2.90042,51.07584 c 2.54421,1.3292 4.61818,0.53474 4.61818,2.39824 l 0,4.45616 c 0,2.54408 -2.13888,2.85195 -3.53239,2.85195 -4.48864,0 -15.96115,-0.081 -20.46599,-0.081 -4.48862,0 -8.55589,0.081 -13.04451,0.081 -1.37732,0 -3.5162,-0.30608 -3.5162,-2.85195 l 0,-4.45616 c 0,-2.54408 1.62042,-1.15051 4.48858,-2.70612 0,0 2.98155,-1.83108 2.98155,-5.13676 l 0,-66.34022 c -0.0972,-5.93077 0.59954,-8.70169 -2.59264,-10.43553 -1.3451,-0.76165 -2.0904,-1.06954 -2.0904,-1.06954 -1.57177,-0.58332 -2.0742,-1.3449 -2.0742,-3.07881 l 0,-3.59731 c 0.0181,-1.96076 0.51863,-3.03017 2.0904,-3.03017 l 34.62851,0 c 12.9634,0.13033 18.82935,2.98152 24.04708,6.62748 6.49791,4.5534 11.50498,13.10929 11.50498,19.47758 0,10.8244 -5.76862,22.05399 -14.06521,25.23002 -1.24773,0.74535 -1.47463,1.37737 -1.47463,2.44685 0,0.53474 0.17825,1.06948 0.45377,1.45835 1.26397,2.1876 3.74309,7.04886 4.82882,9.80359 l 8.02106,19.753 c 2.67375,5.88215 3.25706,7.89147 7.25965,9.26882 2.26846,1.15051 1.96067,2.67372 1.96067,2.67372 l 0,3.69457 c 0,2.09035 -2.31731,2.23619 -2.31731,2.23619 l -21.13021,0 c -2.90062,0 -4.14839,0.48612 -5.97947,-3.20845 0,0 -9.65769,-17.69505 -14.77829,-37.75593 -0.48598,-1.96071 -1.66907,-1.73386 -1.66907,-1.73386 -1.32866,0 -1.45825,1.34495 -1.45825,1.34495 l 0,26.2347 c 0,4.27794 3.30552,5.44464 3.30552,5.44464 m 113.65676,-14.00048 c 0,7.48637 -0.38891,16.17185 5.00706,16.17185 2.78726,0 4.99104,-4.48857 6.15772,-8.91234 1.16662,-4.5372 1.62041,-9.43087 1.62041,-14.34076 0,-9.34986 -2.65753,-22.94528 -8.57214,-22.94528 -1.23153,0 -2.78709,0.84264 -3.56484,2.70617 -0.64821,1.47459 -0.64821,3.93761 -0.64821,5.62288 l 0,21.69748 z m 0.0648,33.73727 c 0,3.25706 1.53936,4.27792 1.53936,4.27792 2.17128,1.37737 5.3637,1.02087 5.3637,2.90057 l 0.0315,4.27792 c 0,2.54408 -2.13906,2.85195 -3.51638,2.85195 -4.50483,0 -10.85676,-0.099 -15.34539,-0.099 -4.48862,0 -7.16238,0.099 -11.65096,0.099 -1.39356,0 -3.51624,-0.30607 -3.51624,-2.85195 l -0.0314,-4.27792 c 0,-2.54407 1.63663,-1.29634 4.50461,-2.80335 0,0 1.60441,-1.11808 1.60441,-4.37514 l 0,-52.58283 c -0.0972,-5.93073 0.59954,-8.68548 -2.59283,-10.43556 -2.10642,-0.87503 -3.48377,-1.94451 -3.46775,-4.22927 0.018,-1.99316 1.13442,-3.69459 2.77106,-4.48858 l 16.96581,-7.14612 c 0,0 1.08578,-0.56714 3.38665,-0.56714 2.17151,0 3.53262,1.24774 3.82421,3.15986 0,0.76158 0.63196,1.37737 1.3937,1.37737 0.43751,0 0.84249,-0.21158 1.1018,-0.53474 2.3011,-2.67376 6.6275,-4.27798 9.94946,-4.18076 15.19961,0.40512 22.37819,17.90571 22.37819,32.9271 0,28.82738 -16.91739,38.54993 -31.42012,37.30221 -0.98841,-0.099 -1.52329,-0.0496 -2.60884,-0.14404 0,0 -0.53488,-0.13049 -0.66447,0.32408 l 0,9.09059 m 91.24618,-17.25933 c 0,-1.8635 -1.34486,-1.28016 -3.51618,-2.65751 0,0 -1.53954,-0.45372 -1.53954,-4.29413 l 0,-52.08054 c 0,-1.24767 -1.02086,-2.31715 -2.28468,-2.28475 -8.10213,0.40512 -20.51463,2.51166 -20.51463,2.51166 -1.39353,0.21152 -2.31731,1.10189 -2.31731,2.39821 l 0,3.92145 c 0,0.76158 0.37272,1.42594 0.9562,1.83106 0,0 1.02091,0.76158 1.6689,1.1991 3.19237,1.73391 2.49555,8.32905 2.57662,14.25978 l 0,25.00317 c 0,0.48613 -0.19446,0.97227 -0.51864,1.28016 -1.18286,1.39356 -2.77087,2.51164 -2.77087,2.51164 -0.71308,0.51854 -1.60419,0.84263 -2.56042,0.84263 -2.36573,0 -4.29395,-1.87969 -4.29395,-4.19691 l 0,-49.2772 c 0,-1.24767 -1.02087,-2.31715 -2.30109,-2.28475 -8.08589,0.40512 -20.49843,2.51166 -20.49843,2.51166 -1.39353,0.21152 -2.31708,1.10189 -2.31708,2.39821 l 0,3.92145 c 0,0.76158 0.37269,1.42594 0.95601,1.83106 0,0 1.00466,0.76158 1.65282,1.1991 3.19221,1.73391 2.49533,8.32905 2.5927,14.25978 l 0,29.94548 c 0,7.94009 6.54656,14.35743 14.6325,14.35743 2.02552,0 3.51618,-0.40512 5.28257,-1.11854 3.09489,-1.19912 7.61591,-5.2988 7.61591,-5.2988 0.19445,-0.18005 0.42133,-0.27458 0.72911,-0.27458 0.59978,0 1.08578,0.48613 1.08578,1.06949 l 0,4.27792 c 0,0.81021 0.64821,1.42598 1.44222,1.42598 4.48858,0 15.50738,-1.60423 20.7253,-2.36582 1.37732,-0.22506 3.51618,-0.713 3.51618,-2.85196 l 0,-3.97004 m 110.70766,0.0477 c 0,-2.54409 1.63662,-1.19912 4.50482,-2.70612 0,0 1.58798,-1.03708 1.58798,-4.29414 l 0,-64.86564 c -0.0972,-5.93077 0.59955,-8.70169 -2.59282,-10.43559 -2.10646,-0.89121 -3.48377,-2.54407 -3.46758,-4.81265 0.018,-1.96069 1.15047,-3.69454 2.7709,-4.50476 l 16.96575,-6.98406 c 0,0 1.06954,-0.58332 3.38666,-0.58332 2.1715,0 3.93772,1.73384 3.93772,3.8728 l 0.018,88.31324 c 0,3.25705 1.49087,4.29414 1.49087,4.29414 2.17129,1.37735 3.5162,0.84261 3.5162,2.70611 l 0.0648,4.45616 c 0,2.54408 -2.13906,2.85196 -3.53263,2.85196 -4.48858,0 -8.97704,-0.081 -13.4656,-0.081 -4.48864,0 -7.16238,0.081 -11.65101,0.081 -1.39353,0 -3.51619,-0.30609 -3.51619,-2.85196 l -0.0181,-4.45616 M 95.204183,530.9362 c -6.352164,2.85193 -8.345246,3.77558 -11.958807,5.57425 -5.541891,2.75473 -10.565175,5.73632 -13.336059,8.91234 -3.48396,3.95385 -4.942388,7.66462 -4.58594,14.25975 0.583544,10.5976 8.604565,14.438 15.021397,14.438 10.581429,0 13.806076,-5.75251 15.005154,-6.59512 0,0 0.550897,-0.81021 0.907562,0 2.317079,5.20156 7.03257,6.44973 11.19696,6.44973 4.48863,0 11.48902,-2.39867 14.01675,-7.03309 0.24306,-0.45372 0.3889,-1.47459 0.3889,-1.47459 l 0,-6.49791 c 0,-0.7616 -0.22686,-1.8797 -1.37732,-1.70144 -1.28022,0.18005 -2.4793,1.47459 -3.6622,1.47459 -0.22688,0 -0.93977,-0.13049 -1.02088,-0.68059 l 0,-38.27448 c 0,-4.94228 -0.64821,-7.66462 -4.16441,-11.13231 -4.81262,-4.76407 -14.243581,-6.02799 -18.634902,-6.02799 -6.951667,0 -17.403321,2.1876 -22.637308,8.34522 -2.787261,3.28942 -4.310378,12.50967 -1.977056,18.03578 0.551089,1.29589 2.122858,0.50187 2.122858,0.50187 l 15.215847,-4.86128 c 1.24773,-0.76158 0.761506,-1.91211 0.761506,-1.91211 -0.275469,-1.6528 -0.437514,-5.0395 -0.437514,-5.0395 0,-2.90061 1.328833,-6.01182 5.185464,-6.01182 2.673558,0 3.840403,1.60428 3.969998,3.92144 l 0,15.32926 m 0,11.31057 0,13.46573 c 0,0 -0.06478,2.04174 -2.155132,2.75473 0,0 -3.289496,0.81021 -5.234112,-0.48612 0,0 -2.171318,-1.29634 -2.171318,-5.75252 0,0 -0.129699,-4.00245 2.317291,-6.41689 0,0 1.523117,-1.81487 5.282593,-4.35894 0,0 1.960678,-1.16671 1.960678,0.79401 m 173.790707,13.59537 c -0.27548,3.03019 -5.3475,9.80358 -6.95173,11.13233 -5.23392,4.95849 -11.32673,7.53498 -17.74356,7.53498 -15.07006,0 -27.36901,-15.45886 -27.36901,-36.71886 0,-19.78538 13.78982,-34.75814 28.43853,-34.75814 5.55797,0 12.07213,2.05791 16.56071,6.82199 3.62975,3.74317 7.06506,13.06065 7.19459,19.50993 0.081,4.82888 -1.10174,4.73165 -2.78709,4.73165 l -21.81083,0 c -4.61817,0 -5.68774,-0.45373 -5.68774,3.74318 0,11.53744 4.63442,20.67665 13.61161,20.19052 6.1413,-0.3556 8.19928,-6.87061 10.75945,-6.87061 0,0 0.84267,0.0495 1.39375,0.45371 l 3.84043,3.15983 c 0,0 0.63199,0.40512 0.55089,1.06949 z m -21.56797,-38.85783 c -0.30787,-2.75474 -2.43063,-4.71543 -4.35886,-4.71543 -2.33349,0 -3.58109,2.04174 -4.13217,4.71543 -0.92356,4.40754 -0.9722,7.56785 -0.9722,7.56785 0,1.11767 0.93975,2.05746 2.07419,2.05746 l 5.72013,0 c 1.15048,0 2.02554,-0.93979 2.07402,-2.05746 0.19446,-4.31077 -0.40511,-7.56785 -0.40511,-7.56785 m 140.49105,49.95775 c -0.3889,-0.30608 -0.61577,-0.58335 -0.61577,-0.98847 l -0.0315,-71.68763 c -0.0972,-5.93078 0.61576,-8.70169 -2.57644,-10.4356 -2.12285,-0.89121 -3.50016,-2.54407 -3.46774,-4.81265 0,-1.96069 1.13424,-3.64595 2.77087,-4.45618 l 16.94957,-7.03265 c 0,0 1.08577,-0.58332 3.38687,-0.58332 2.18753,0 3.95375,1.73384 3.95375,3.8728 l 0,35.95727 c 0,0.76158 0.63197,1.37737 1.39353,1.37737 0.43751,0 0.84266,-0.21158 1.10197,-0.51857 2.59264,-3.43528 6.6437,-5.13671 9.94941,-5.0395 15.19966,0.43662 22.37801,15.02134 22.37801,34.1748 0,23.65822 -15.91251,37.30221 -31.42007,37.30221 -7.42151,0 -18.16493,-2.31722 -23.77156,-7.12988 z m 20.43357,-18.00294 c 0,7.48637 -0.38889,16.17186 4.99082,16.17186 2.80333,0 5.00729,-4.55341 6.17391,-8.96052 1.16667,-4.53764 1.62044,-9.44751 1.62044,-14.34121 0,-9.31746 -2.6575,-22.91283 -8.57211,-22.91283 -1.23151,0 -2.78709,0.85881 -3.56484,2.6737 -0.64822,1.47459 -0.64822,3.92144 -0.64822,5.67152 l 0,21.69748 m 57.49268,0 c 0,7.48637 -0.3889,16.17186 4.99086,16.17186 2.80347,0 5.00726,-4.55341 6.17392,-8.96052 1.16666,-4.53764 1.62042,-9.44751 1.62042,-14.34121 0,-9.31746 -2.65754,-22.91283 -8.57214,-22.91283 -1.23153,0 -2.78708,0.85881 -3.56485,2.6737 -0.64821,1.47459 -0.64821,3.92144 -0.64821,5.67152 l 0,21.69748 z m -20.43353,18.00294 c -0.38891,-0.27458 -0.61577,-0.58335 -0.61577,-0.98847 l -0.0314,-71.68763 c -0.0972,-5.93078 0.59956,-8.70169 -2.59264,-10.4356 -2.10664,-0.89121 -3.48395,-2.54407 -3.46774,-4.81265 0.018,-1.96069 1.15044,-3.64595 2.78709,-4.45618 L 458.44,467.52888 c 0,0 1.08556,-0.58332 3.38666,-0.58332 2.18752,0 3.95374,1.73384 3.95374,3.8728 l 0,35.95727 c 0,0.76158 0.63197,1.37737 1.39375,1.37737 0.42131,0 0.84243,-0.21158 1.10174,-0.51857 2.59264,-3.43528 6.62751,-5.13671 9.94948,-5.0395 15.18339,0.43662 22.37799,15.02134 22.37799,34.1748 0,23.65822 -15.91254,37.30221 -31.41993,37.30221 -7.42164,0 -18.18132,-2.31722 -23.7717,-7.12988 M 546.8332,491.31678 c 6.75724,0 12.23423,-5.39604 12.23423,-11.99117 0,-6.62755 -5.47699,-11.97487 -12.23423,-11.97487 -6.75708,0 -12.21789,5.34732 -12.21789,11.97487 0,6.59513 5.46081,11.99117 12.21789,11.99117 m -11.87768,72.10898 c -2.85195,1.507 -4.48858,0.16204 -4.48858,2.70612 m 6.0766,-7.00025 c 0,3.25705 -1.58802,4.29413 -1.58802,4.29413 -2.85195,1.507 -4.48858,0.16204 -4.48858,2.70612 l 0,4.45616 c 0,2.54408 2.12285,2.85195 3.51637,2.85195 4.48863,0 7.16214,-0.081 11.65077,-0.081 4.48864,0 8.97722,0.081 13.46585,0.081 1.39354,0 3.5162,-0.30608 3.5162,-2.85195 l 0,-4.45616 c 0,-1.8635 -1.3449,-1.37737 -3.5162,-2.70612 0,0 -1.53952,-1.03708 -1.53952,-4.29413 l -0.0181,-51.6754 c 0,-2.13896 -1.76623,-3.88903 -3.93752,-3.88903 -2.30108,0 -3.38662,0.58337 -3.38662,0.58337 l -16.96597,7.00026 c -1.62043,0.79398 -2.75463,2.52783 -2.77085,4.48904 -0.0181,2.28429 1.36113,3.93716 3.46772,4.81219 3.1922,1.75008 2.49554,4.50476 2.59268,10.43555 l 0,28.24402 M 639.7324,530.88761 c -6.35213,2.90054 -8.34521,3.8242 -11.9588,5.62287 -5.54188,2.70611 -10.56515,5.73631 -13.33625,8.91234 -3.48375,3.95384 -4.94218,7.616 -4.58575,14.25975 0.58339,10.59759 8.60457,14.38939 15.02144,14.38939 10.5814,0 13.80606,-5.75251 15.00513,-6.54652 0,0 0.5509,-0.85883 0.90733,0 2.31733,5.20157 7.03276,6.40068 11.19725,6.40068 4.48857,0 11.48868,-2.34961 14.01667,-6.98404 0.24305,-0.45372 0.38887,-1.52319 0.38887,-1.52319 l 0,-6.49791 c 0,-0.7616 -0.2268,-1.83109 -1.39349,-1.70144 -1.26402,0.18004 -2.46299,1.47458 -3.64603,1.47458 -0.22675,0 -0.93972,-0.13048 -1.02086,-0.63197 l 0,-38.27445 c 0,-4.94234 -0.64813,-7.69702 -4.16454,-11.13237 -4.82891,-4.76407 -14.24342,-6.0604 -18.63492,-6.0604 -6.95151,0 -17.40339,2.17137 -22.63733,8.37763 -2.77089,3.25707 -4.3102,12.47727 -1.97683,18.00293 0.55089,1.28015 2.12281,0.48614 2.12281,0.48614 l 15.21564,-4.86128 c 1.24777,-0.74541 0.76172,-1.91211 0.76172,-1.91211 -0.27545,-1.65286 -0.43752,-4.99092 -0.43752,-4.99092 0,-2.94918 1.3449,-6.01176 5.18529,-6.01176 2.67376,0 3.82414,1.60422 3.97017,3.92145 l 0,15.2806 m 0,11.35918 0,13.46574 c 0,0 -0.0648,2.04173 -2.17155,2.72231 0,0 -3.25705,0.84263 -5.21774,-0.45371 0,0 -2.17125,-1.32876 -2.17125,-5.75251 0,0 -0.12957,-4.05108 2.30087,-6.4169 0,0 1.53947,-1.86348 5.29883,-4.40754 0,0 1.96084,-1.16671 1.96084,0.84261 m -38.56625,11.05127 c 0,0 0.45377,-1.19911 1.6042,-0.66437 l 5.23394,3.84041 c 0,0 0.72926,0.89124 0,2.6575 0,0 -1.84731,5.18536 -6.33573,9.31746 -4.73174,4.42376 -10.19258,6.02798 -15.86404,6.02798 -15.10247,0 -27.23949,-13.77363 -25.89438,-35.97346 1.39354,-22.86378 14.25962,-34.66096 29.8481,-35.47113 4.16464,-0.21157 8.58838,0.76159 12.96342,4.24551 0,0 6.17391,5.0719 6.17391,12.96343 0,5.42844 -4.24546,9.85217 -9.4632,9.85217 -5.23414,0 -10.04676,-4.78027 -10.38699,-12.29902 0,0 -0.081,-3.0464 -1.47463,-4.90994 0,0 -0.51845,-0.84263 -1.47463,-0.84263 0,0 -0.97222,-0.35556 -2.02558,1.24775 0,0 -3.45146,4.5858 -3.45146,15.10238 0,13.77364 0.69682,30.22097 12.67182,30.22097 0,0 5.42835,0.51853 7.87525,-5.31501"
       id="path80"
       style="fill:#000000;fill-opacity:1;fill-rule:nonzero;stroke:none" />
  </g>
</svg>
