<?xml version="1.0" encoding="UTF-8" standalone="no"?>
<svg xmlns="http://www.w3.org/2000/svg" height="80px" width="472px" version="1.1" viewBox="0 0 472 80">
 <path fill="#FA4B2A" d="m110 71.002c0 2.421-0.54 5.014-2.41 6.998h48.41v-24.3c-3.36 1.541-7.5 2.302-11.5 2.302h-10.5v-8.002h5.5c3 0 5.65 0.29 8.5 1.5v-21c-2.85 1.208-5.5 1.5-8.5 1.5l-5.5 0.002v-9.002h10.5c4 0 8.14 0.757 11.5 2.3v-23.298h-48.5c1.86 1.618 2.5 4.578 2.5 7v64zm-42-41.002v-8h1.014c2.74 0 5.918 0.443 7.986 1.542v-23.54h-33.979v77.998h27.479c-1.864-1.618-2.5-4.578-2.5-7v-22h13v22c0 2.422-0.636 5.382-2.5 7h27.5v-77.998l-25-0.002v30h-13zm-59.889-8h5.889v49c0 2.422-0.635 5.382-2.5 7h27.5v-78l-39 0.002v23.54c2.193-1.099 5.372-1.542 8.111-1.542zm413.86 8h-29.92c-1.53 0-3.29-0.147-5.05-0.7v19.4c1.76-0.549 3.52-0.7 5.05-0.7h7.95v6c-0.98 0.883-3.13 1.371-5.32 1.371-9.1 0-15.78-7.179-15.78-15.871 0-8.696 6.5-16.5 15.6-16.5 5.5 0 11.7 1.802 18.5 5.008v-28.008l-20-2.1316e-14c-21.59 0-38.8 16.712-38.8 39.303 0 22.121 17.33 40.697 39.8 40.697 12.38 0 23.92-5.038 29.95-11.202-1.21-2.202-1.98-4.402-1.98-7.044v-31.754zm38.53-9c4 0 8.14 0.757 11.5 2.3v-23.298h-48.5c1.86 1.618 2.5 4.578 2.5 7v64c0 2.421-0.54 5.014-2.41 6.998h48.41v-24.3c-3.36 1.541-7.5 2.302-11.5 2.302h-10.5v-8.002h5.5c3 0 5.65 0.29 8.5 1.5v-21c-2.85 1.208-5.5 1.5-8.5 1.5l-5.5 0.002v-9.002h10.5zm-116 21.8c4.16-4.599 6.7-10.632 6.7-16.766 0-17.966-13.38-26.027-27.73-26.025l-30.96-0.006c1.86 1.611 2.49 4.55 2.5 6.965l-0.01 64.032c0 2.41-0.64 5.028-2.5 7h29.79c-1.86-1.972-2.29-4.716-2.29-7v-15.875c8.55 1.625 14.23 9.558 14.23 15.908 0 2.41-0.56 4.995-2.42 6.967h29.71c-1.86-1.972-2.35-4.824-2.52-7.228-1-13.772-5.73-23.481-14.5-27.972zm-24.5-7.7v-14.2c4 0 9.1 1.1 9.1 7.1s-5.1 7.1-9.1 7.1zm-109 7.9l-8-22h12l8-21-56-1.6655e-14c1.76 1.765 3.39 3.744 4.6 6.058l30.98 71.942h16.92l25.5-60v53c-0.02 2.484-0.64 5.382-2.5 7h48.5v-24.3c-3.32 1.543-7.5 3.3-11.5 3.3h-10.5v-9h5.5c3 0 5.65 0.292 8.5 1.5v-21c-2.85 1.209-5.5 1.5-8.5 1.5h-5.5v-8h10.5c4 0 8.18 0.759 11.5 2.3v-24.298l-64-0.002-16 43z"/>
</svg>
