<svg xmlns="http://www.w3.org/2000/svg" height="180.57" width="350" version="1.1" viewBox="0 0 350.00127 180.56764">
	<metadata/>
	<path fill="#000000" d="m178.49 115.52 4.5386-24.788zm4.1048-24.867-4.5386 24.788z"/>
	<g fill="#0068af">
		<path d="m130.42 64.821c-4.8205 0.0103-9.7094 0.14314-14.138 0.1232l-10.887 35.688-2.0202 7.0435s-0.21666 2.15-0.21709 3.2288c-0.00042 1.0788-1.7582 0.92303-1.7591-0.0413-0.00088-0.96441-0.24724-3.1875-0.24724-3.1875-0.44408-1.7763-1.8494-6.4701-2.3596-8.2287h0.06375l-10.588-34.503c-6.5433-0.087-13.474-0.0854-19.214-0.0827l-11.372 71.802h15.879l5.2849-33.373c0.09641-3.8285 0.65217-7.5282 0.68834-11.321 0.000882-0.96441 1.2306-1.2675 1.231-0.18866 0.000427 1.0788 0.21709 3.2288 0.21709 3.2288l2.3596 8.2287h-0.0086l10.22 33.425h15.529l11.747-38.025 1.1078-3.6285s0.23043-2.15 0.23088-3.2288c0.00044-1.0788 1.3103-0.77576 1.3112 0.18866 0.0385 3.7946 0.631 7.4965 0.7331 11.328h-0.0138l5.285 33.366h17.218l-11.503-71.802c-1.5722-0.0341-3.1717-0.0439-4.7786-0.0405z"/>
		<path d="m176.06 64.944-24.696 71.723h15.728l4.6313-13.451h25.534l4.6313 13.451h17.258l-24.696-71.723zm8.4915 19.188c0.43978-0.0246 0.88021 0.20664 0.88043 0.74603 0.00043 1.0788 0.21623 3.2288 0.21623 3.2288l2.3596 8.2287h-0.006l4.888 14.195h-16.799l5.4755-15.901c0.63541-2.1594 1.5072-5.1147 1.859-6.5222 0 0 0.24549-2.223 0.24638-3.1875 0.00044-0.48223 0.43979-0.76279 0.87954-0.78741z"/>
		<path d="m22.337 136.39c10.108 2.8179 28.721-0.56267 29.173-1.4256l-1.8163-14.466c-9.7513 3.1315-16.863 2.8693-22.008 0.0789-4.2807-2.3216-8.8422-5.6387-8.9873-19.727-0.17476-16.94 9.1805-20.54 13.39-21.413 4.1671-0.86433 5.1412-1.2362 17.574 1.4084l1.7731-14.679c-5.0679-1.4467-14.513-2.964-26.631-0.56901-11.2 2.2142-24.05 15.08-24.36 35.374-0.39807 26.112 13.643 33.116 21.891 35.418z"/>
		<path d="m13.61 167.68q0-2.9704 1.6993-4.8372 1.7114-1.8671 4.5073-1.8671 2.9407 0 4.5678 1.7943 1.627 1.7943 1.627 4.91 0 3.1037-1.6632 4.9343-1.6511 1.8307-4.5316 1.8307-2.9407 0-4.5797-1.8428-1.627-1.8549-1.627-4.9224zm3.1335 0q0 4.2919 3.0733 4.2919 1.4101 0 2.2296-1.1154 0.8316-1.1154 0.8316-3.1764 0-4.2312-3.0612-4.2312-1.4101 0-2.2417 1.1154t-0.8316 3.1158z"/>
		<path d="m35.027 160.83c-1.2985 0.0171-2.9551 0.9461-4.2022 2.009v-1.6644h-2.8807v12.96h2.8807v-7.6557c0.22376-0.7043 0.80068-1.6787 1.3921-2.1623 0.54949-0.55765 1.0582-0.74546 1.7574-0.77793 0.83963-0.039 0.99299 0.0804 1.4998 0.68746 0.46374 0.5554 0.37341 1.8799 0.37302 2.7326l-0.0034 7.1763h2.8808l0.006-7.2001c0.03115-0.65226 0.68971-2.0162 1.4257-2.618 0.54949-0.55765 1.0582-0.74546 1.7574-0.77793 0.83963-0.039 1.0438 0.0908 1.5506 0.69778 0.46374 0.5554 0.34766 1.9385 0.34459 2.7912l-0.02413 7.107h2.8807l0.03445-8.4744c0.0059-1.4468-0.24219-3.0479-1.0751-3.8723-0.82459-0.83248-1.313-0.89974-2.6585-0.95796-1.6412 0.0537-2.8956 1.169-4.2333 2.3398l-0.25413 0.2369c-0.15701-0.653-0.40378-1.2331-0.7934-1.6187-0.82459-0.83248-1.313-0.89975-2.6585-0.95797z"/>
		<path d="m52.234 174.14v6.0896h-2.8512v-19.05h2.8512v1.6664c1.212-1.0343 2.7819-1.9493 3.7877-1.9478 3.5711 0.005 4.9363 2.2999 4.9363 6.8585 0 2.1258-0.92021 3.6596-2.0611 4.8075-1.0902 1.2054-3.0789 1.5763-3.932 1.5776 0 0-1.2967-0.001-2.7308-0.001zm0-8.3732v6.0484c0.65789 0.0528 1.3945 0.0409 2.0971 0 1.6538-0.0963 2.0957-0.59692 2.454-0.91775 0.73449-0.81949 1.0476-2.155 1.06-3.1232 0.01275-0.99928-0.02999-1.7376-0.26615-2.3319-0.01076-0.162-0.49029-2.3835-2.6186-1.9743-1.3756 0.26449-2.3172 1.5822-2.7263 2.2988z"/>
		<path d="m64.934 167.76c0.01054 2.1044 0.74909 3.0069 1.3474 3.5808 0.5983 0.57388 1.9998 0.62635 2.6622 0.61396 0.99501-0.0187 2.5936-0.11282 3.539-0.74986l0.04606 2.5626c-1.4687 0.70027-2.9238 0.6801-4.859 0.6801-1.6451 0-2.9958-0.57791-4.052-1.7338-1.0489-1.1639-1.6556-2.8668-1.6556-4.9442 0-2.0449 0.53502-3.6607 1.6873-4.9296 1.1597-1.269 2.4249-1.8624 4.0425-1.8624 1.721 0 3.308 0.6029 4.3494 1.7264s1.1919 3.3359 1.1919 5.0738zm0.01954-1.7285 5.2882 0.0826c0.06535-1.3933-0.32062-2.9715-2.5056-3.0552-1.1228 0.0115-2.8021 0.71992-2.7825 2.9726z"/>
		<path d="m76.188 163.65h-2.119v-2.4688l2.119-0.00001v-3.9911l2.8801-0.98751v4.9787l3.1681 0.0318v2.4369h-3.1681l0.01111 5.6773c0.0031 1.4729-0.14379 1.6361 0.42091 2.2022 0.60854 0.61007 2.1095 0.22025 2.7361-0.1758v2.7886c-0.699 0.24248-1.9338 0.34974-3.1946 0.36372-1.142 0.0127-1.6071-0.39454-2.2064-0.98044-0.61721-0.60338-0.62046-1.9428-0.62504-3.2926l-0.02227-6.5829z"/>
		<path d="m83.779 174.14v-12.961h3.271l-0.004 12.967z"/>
		<circle cy="157.18" cx="85.41" r="1.632"/>
		<path d="m124.44 160.83c-1.2985 0.0171-3.1552 0.94694-4.4023 2.0098v-1.6652h-2.8807v12.961h2.8807v-7.6548c0.22349-0.70439 1.0012-1.6792 1.593-2.1632 0.54949-0.55764 1.0573-0.74629 1.7565-0.77876 0.83963-0.039 0.99299 0.0804 1.4998 0.68746 0.46375 0.5554 0.37341 1.8807 0.37302 2.7335l-0.004 7.1763h2.8807l-0.005-8.3778c-0.00088-1.4468-0.20085-3.1452-1.0338-3.9697-0.82459-0.83253-1.313-0.89975-2.6585-0.95797z"/>
		<path d="m151.65 174.49 2.1982-2.1982-3.3973-2.6543c1.4667-2.7971 2.2382-4.5806 2.157-7.365h-2.8803c0.192 2.5907-0.6143 4.0671-1.5784 5.7348l-5.3115-4.299c2.2296-1.5319 3.4097-2.6437 3.4097-4.6421 0-2.6376-1.9944-4.4094-4.6822-4.4094-2.6996 0-5.1347 1.8359-5.1347 4.4735 0 1.4787 1.0249 2.6934 2.447 4.5049-1.8982 1.2683-3.4738 3.523-3.5042 5.4724 0 3.2904 3.2226 5.0889 5.6281 5.2813 2.0746 0.16602 5.0845-0.89355 7.2539-2.5568zm-11.104-8.9152 5.5687 4.4793c-1.0901 1.4993-3.8357 2.124-4.8721 1.7245-1.4844-0.57211-2.6153-1.2985-2.6153-2.9503 0.0769-1.7174 0.50001-2.1497 1.9187-3.2536zm0.69158-3.6215c-0.97619-1.2123-1.5322-1.7014-1.5464-2.6071-0.0291-1.8548 0.94672-2.4189 1.8868-2.4189 0.928 0 1.7634 0.712 1.7343 2.26-0.021 1.1188-0.78507 1.8734-2.0746 2.7659z"/>
		<path d="m203.51 155.21v18.926h2.8807v-6.2474h0.20073l4.3573 6.2474h3.4579l-5.008-7.1511 4.6683-5.8089h-3.5923l-3.4286 4.8959h-0.65557v-10.862z"/>
		<path d="m202.06 160.77c-1.6375-0.0131-2.3072 0.68225-3.8632 2.1104v-1.704h-2.8799l-0.008 12.969 2.8877-0.009-0.0198-7.2442c0.1306-1.113 0.75719-1.9995 1.4852-2.5948 0.54949-0.55765 1.3865-0.58085 2.4149-0.61331 0.0482-1.2916-0.0171-2.9142-0.0171-2.9142z"/>
		<path d="m189.85 172.13c-0.88441 1.1573-1.9063 2.0508-3.3791 2.3215-1.39 0-2.4004-0.34756-3.1958-1.0427-0.79544-0.70319-1.1932-1.6974-1.1932-2.9826 0-1.5034 1.1756-2.5148 1.9632-3.1578 0.83683-0.56065 1.8557-0.98499 3.9206-0.98499 0.35352 0 1.3885 0.0194 1.8706 0.14072 0.11528-1.591-0.51993-3.4396-2.8393-3.1967-1.1267 0.118-3.233 0.56026-3.9963 0.94014l-0.11592-2.5578c1.0365-0.50115 3.1338-0.75173 4.5639-0.75173 1.9685 0 3.3696 0.53495 4.2855 1.4402 0.91593 0.89718 0.85705 2.4814 0.96246 4.9929l0.0333 6.8505h-2.8801zm0.0411-3.7488c-0.51422-0.10508-1.0128-0.15234-1.27-0.15234-2.3782 0-3.8142 0.78401-3.732 2.3932 0.0594 1.1624 1.1651 1.4636 2.2184 1.4167 1.5599-0.0695 2.3358-1.2457 2.7528-2.7691 0.10003-0.36541 0.0307-0.88851 0.0307-0.88851z"/>
		<path d="m235.82 174.12-0.0177-2.3098c1.5205 0.18118 2.596 0.25562 3.728 0.21499 0.6811-0.0245 1.2919-0.36711 1.6156-1.1581 0.18673-0.45633 0.0495-0.95889-0.304-1.2741-0.35352-0.31522-1.0107-0.76637-2.0609-1.1154-3.1868-1.0592-2.9762-2.9769-2.9475-3.9245 0.0381-1.2575 0.73365-2.1536 1.3187-2.5571 0.87227-0.60166 1.5125-0.88232 2.8341-0.98681 1.3006-0.10287 2.2699 0.0236 3.1877 0.29212l-0.004 2.0435c-0.83203-0.20017-1.5806-0.47544-2.9741-0.21092-1.0341 0.19629-1.5908 0.58489-1.5908 1.4461 0 0.33139 0.10748 0.84586 0.6296 1.2554 0.34343 0.26939 0.94281 0.37451 2.0771 0.82365 1.1315 0.44806 1.969 1.089 2.4671 1.7275 0.49817 0.63856 0.51805 1.3392 0.37692 2.2334-0.18424 1.1675-0.50195 1.8178-1.3378 2.4994-0.77012 0.62803-1.389 1.1598-3.1013 1.2363-1.256 0.0561-2.6922 0.12078-3.8969-0.23556z"/>
		<path d="m270.05 174.5c1.2985-0.0171 3.1552-0.94694 4.4023-2.0098v1.6652h2.8807v-12.961h-2.8807v7.6548c-0.22349 0.70439-1.0012 1.6792-1.593 2.1632-0.54948 0.55764-1.0573 0.74629-1.7565 0.77875-0.83962 0.039-0.99299-0.0804-1.4998-0.68745-0.46375-0.5554-0.37342-1.8807-0.37302-2.7335l0.004-7.1763h-2.8807l0.005 8.3778c0.00088 1.4468 0.20085 3.1452 1.0338 3.9697 0.82459 0.83253 1.313 0.89974 2.6585 0.95797z"/>
		<path d="m296.05 160.83c-1.2985 0.0171-3.1552 0.94694-4.4023 2.0098l-0.00015-7.631h-2.8807l0.00015 18.926h2.8807v-7.6548c0.22349-0.7044 1.0012-1.6793 1.593-2.1632 0.54949-0.55765 1.0573-0.7463 1.7565-0.77876 0.83963-0.039 0.99299 0.0804 1.4998 0.68746 0.46374 0.5554 0.37341 1.8807 0.37301 2.7335l-0.004 7.1763h2.8807l-0.005-8.3778c-0.00088-1.4468-0.20084-3.1452-1.0338-3.9697-0.82458-0.83253-1.313-0.89975-2.6585-0.95797z"/>
		<path stroke-width="1.0023" d="m337.53 161.18s4.4646 12.697 4.4576 13.221c-0.004 0.30805-0.10885 0.66749-0.10885 0.66749-0.78177 2.8796-1.869 2.8985-4.8493 2.6105v2.88c2.1056 0.0412 3.4463 0.0002 4.7046-0.67971 1.3486-0.89496 2.3587-2.7525 2.6801-3.6174l5.1792-15.082h-3.0591l-2.9627 9.1586-0.008 0.0198-0.012-0.0198-2.9627-9.1586z"/>
		<path d="m177.27 156.18c-1.1681 0.002-2.3527 0.0357-3.4257 0.031l-2.6379 8.8951-0.48951 1.7556s-0.0525 0.5359-0.0526 0.80478c-0.00009 0.2689-0.42603 0.23007-0.42624-0.0104-0.00025-0.2404-0.0599-0.79451-0.0599-0.79451-0.10759-0.44275-0.44813-1.6126-0.57176-2.051h0.0154l-2.5657-8.5996c-1.5855-0.0214-3.2649-0.021-4.6555-0.0204l-2.7556 17.897h3.8476l1.2807-8.3182c0.0231-0.95427 0.158-1.8764 0.16677-2.8217 0.00023-0.24037 0.29824-0.31591 0.29832-0.047 0.00009 0.26888 0.0526 0.80478 0.0526 0.80478l0.57177 2.051h-0.002l2.4764 8.331h3.7628l2.8465-9.4778 0.26843-0.90437s0.0558-0.53591 0.056-0.80479c0.0001-0.26887 0.31748-0.19335 0.31769 0.047 0.009 0.94584 0.1529 1.8685 0.17764 2.8234h-0.003l1.2807 8.3164h4.1722l-2.7873-17.897c-0.38095-0.008-0.76853-0.0113-1.1579-0.0105z"/>
		<path d="m255.24 156.2-5.9139 17.908h3.7663l1.109-3.3585h6.1146l1.109 3.3585h4.1327l-5.9139-17.908zm2.0334 4.7909c0.10527-0.006 0.21076 0.0516 0.21082 0.18627 0.00011 0.26935 0.0518 0.80615 0.0518 0.80615l0.56506 2.0546h-0.002l1.1705 3.5442h-4.0227l1.3112-3.9702c0.15218-0.53917 0.36097-1.2771 0.44522-1.6285 0 0 0.0588-0.55504 0.059-0.79583 0.00011-0.12041 0.10531-0.19046 0.21064-0.19659z"/>
		<path d="m5.4676 174.16c2.5233 0.70347 7.17-0.14047 7.2828-0.3559l-0.42933-3.251c-2.4343 0.78175-4.5387 0.75744-5.8233 0.0608-1.0686-0.57956-2.5194-1.8091-2.5558-5.3261-0.043627-4.229 2.2336-5.3305 3.2845-5.5484 1.0403-0.21578 1.9829-0.51434 5.0865 0.14587l0.41842-3.257c-1.2652-0.36116-3.6229-0.73994-6.6482-0.14205-2.7959 0.55276-6.0038 3.7646-6.0811 8.8308-0.099374 6.5185 3.4059 8.2671 5.465 8.8418z"/>
		<path d="m301.58 167.68q0-2.9704 1.6993-4.8372 1.7114-1.8671 4.5073-1.8671 2.9407 0 4.5678 1.7943 1.627 1.7943 1.627 4.91 0 3.1037-1.6632 4.9343-1.6511 1.8307-4.5316 1.8307-2.9407 0-4.5797-1.8428-1.627-1.8549-1.627-4.9224zm3.1335 0q0 4.2919 3.0733 4.2919 1.4101 0 2.2296-1.1154 0.8316-1.1154 0.8316-3.1764 0-4.2312-3.0612-4.2312-1.4101 0-2.2417 1.1154t-0.8316 3.1158z"/>
		<path d="m217.4 167.76c0.0105 2.1043 0.74908 3.0068 1.3474 3.5807 0.59832 0.57388 1.9998 0.62632 2.6622 0.61393 0.99502-0.0187 2.5936-0.11282 3.539-0.74987l0.0461 2.5626c-1.4687 0.70024-2.9238 0.68009-4.8589 0.68009-1.6451 0-2.9957-0.5779-4.052-1.7337-1.0489-1.1639-1.6556-2.8668-1.6556-4.944 0-2.0449 0.53498-3.6607 1.6873-4.9294 1.1597-1.269 2.4248-1.8623 4.0425-1.8623 1.721 0 3.308 0.6029 4.3495 1.7264s1.1919 3.3358 1.1919 5.0737zm0.0195-1.7284 5.288 0.0826c0.0653-1.3933-0.32062-2.9715-2.5056-3.0552-1.1228 0.0115-2.802 0.71992-2.7825 2.9725z"/>
		<path d="m90.384 163.64h-2.119v-2.4687l2.119-0.00001v-3.991l2.8801-0.98748v4.9784l3.1681 0.0318v2.4369h-3.1681l0.01112 5.6771c0.0031 1.4729-0.14379 1.6361 0.42091 2.2021 0.60855 0.61005 2.1094 0.22025 2.7362-0.1758v2.7885c-0.69901 0.24247-1.9338 0.34973-3.1946 0.36372-1.142 0.0127-1.6071-0.39454-2.2064-0.98042-0.61719-0.60335-0.62046-1.9428-0.625-3.2925-0.0074-2.1942-0.02227-6.5826-0.02227-6.5826z"/>
		<path d="m228.45 163.64h-2.119v-2.4687l2.119-0.00001v-3.991l2.8801-0.98748v4.9784l3.1681 0.0318v2.4369h-3.1681l0.0111 5.6771c0.003 1.4729-0.14378 1.6361 0.42091 2.2021 0.60855 0.61005 2.1094 0.22025 2.7362-0.1758v2.7885c-0.69902 0.24247-1.9338 0.34973-3.1946 0.36372-1.142 0.0127-1.6071-0.39454-2.2064-0.98042-0.6172-0.60335-0.62046-1.9428-0.62501-3.2925-0.007-2.1942-0.0223-6.5826-0.0223-6.5826z"/>
		<path d="m280.68 163.64h-2.119v-2.4687l2.119-0.00001v-3.991l2.8801-0.98748v4.9784l3.1681 0.0318v2.4369h-3.1681l0.0111 5.6771c0.003 1.4729-0.14378 1.6361 0.42091 2.2021 0.60855 0.61005 2.1094 0.22025 2.7362-0.1758v2.7885c-0.69902 0.24247-1.9338 0.34973-3.1946 0.36372-1.142 0.0127-1.6071-0.39454-2.2064-0.98042-0.6172-0.60335-0.62046-1.9428-0.625-3.2925-0.007-2.1942-0.0223-6.5826-0.0223-6.5826z"/>
		<path d="m330.37 163.64h-2.119v-2.4687l2.119-0.00001v-3.991l2.8801-0.98748v4.9784l3.1681 0.0318v2.4369h-3.1681l0.0111 5.6771c0.003 1.4729-0.14378 1.6361 0.42091 2.2021 0.60855 0.61005 2.1094 0.22025 2.7362-0.1758v2.7885c-0.69902 0.24247-1.9338 0.34973-3.1946 0.36372-1.142 0.0127-1.6071-0.39454-2.2064-0.98042-0.6172-0.60335-0.62046-1.9428-0.62501-3.2925-0.007-2.1942-0.0223-6.5826-0.0223-6.5826z"/>
		<path d="m98.035 174.14v-12.961h3.271l-0.004 12.967z"/>
		<circle cy="157.18" cx="99.666" r="1.632"/>
		<path d="m323.7 174.14v-12.961h3.271l-0.004 12.967z"/>
		<circle cy="157.18" cx="325.33" r="1.632"/>
		<path d="m102.89 167.68q0-2.9704 1.6993-4.8372 1.7114-1.8671 4.5073-1.8671 2.9407 0 4.5678 1.7943 1.627 1.7943 1.627 4.91 0 3.1037-1.6632 4.9343-1.6511 1.8307-4.5316 1.8307-2.9407 0-4.5797-1.8428-1.627-1.8549-1.627-4.9224zm3.1335 0q0 4.2919 3.0732 4.2919 1.4101 0 2.2296-1.1154 0.8316-1.1154 0.8316-3.1764 0-4.2312-3.0612-4.2312-1.4101 0-2.2417 1.1154t-0.8316 3.1158z"/>
		<path d="m322.61 160.77c-1.6375-0.0131-2.3072 0.68225-3.8632 2.1104v-1.704h-2.8799l-0.008 12.969 2.8877-0.009-0.0198-7.2442c0.1306-1.113 0.75719-1.9995 1.4852-2.5948 0.54949-0.55765 1.3865-0.58085 2.4149-0.61331 0.0482-1.2916-0.0171-2.9142-0.0171-2.9142z"/>
	</g>
	<g stroke-linejoin="round" stroke-width=".17643">
		<path opacity=".4" stroke="#0094b4" fill="#009bc9" d="m334.62 22.386-81.343 91.448 47.314 9.884c0.77241-0.0105 1.5346-0.18599 2.384-0.41077 0.96309-0.25486 1.6356-0.49039 2.4786-0.88771 0.84294-0.39729 1.5547-0.78736 2.5483-1.5541 0.99356-0.76676 2.1996-2.0748 3.3692-3.3787 10.211-11.469 29.898-33.644 34.99-39.4 3.1306-4.3058 4.4147-6.4273 2.9462-13.047z"/>
		<path opacity=".65" stroke="#0087b4" fill="#00a5dc" d="m255.99 5.0955c-4.7018 5.6299-26.33 31.282-31.479 37.55-1.9505 3.0262-2.0442 4.9908-2.0477 7.4903 0.007 1.1248 0.39642 3.3354 0.64697 4.4341l0.00088 0.004s12.41 35.044 18.615 52.567c0.2947 0.83222 0.98156 1.7658 1.5153 2.469 0.54477 0.71776 1.2422 1.3316 1.9978 1.8203 0.56118 0.36296 2.1269 1.1802 3.1168 1.3852 15.888 3.2905 47.667 9.9471 47.667 9.9471z"/>
		<path opacity=".6" stroke="#0087b4" fill="#009bd7" d="m265.83 0.092417c-3.341 0.052-5.0657 0.77051-8.2512 3.1134l-30.5 36.356 120.89 21.607-14.97-43.472c-2.6543-5-6.666-7.1555-11.419-8.1052-0.00029-0.00009-0.00044 0.00009-0.00088 0l-49.894-9.2471h-0.00088c-2.4784-0.22004-4.333-0.27606-5.853-0.25241z"/>
	</g>
	<g stroke-width=".17643">
		<path stroke="#00a4c4" fill="#00b8d8" d="m282.05 81.467-23.92 26.933c-1.1422 1.2859-2.7927 2.619-4.3453 3.6311-1.5989 1.0423-2.8244 1.1598-4.1354 1.0528l3.5712 0.86565-0.00089 0.00088 47.429 9.7588c-1.9896-0.48888-3.1113-1.138-4.5554-3.309-1.0581-1.5907-2.0453-3.5546-2.6292-5.2016-3.9702-11.198-7.6914-22.449-11.408-33.734z"/>
		<path stroke="#009cbc" fill="#00b1d1" d="m306.65 53.803s22.624 4.0942 33.936 6.1415c1.6643 0.30118 4.1098 1.4538 5.7468 2.2621 1.686 0.83244 2.3932 1.649 2.9673 2.8275l-16.412-47.618c0.59659 1.9568 0.39651 3.4329-0.69725 5.7895-0.69853 1.768-1.9937 3.6018-3.106 4.9369-7.3245 8.7919-15.049 16.918-22.433 25.661z"/>
		<path stroke="#009bca" fill="#00afde" d="m270.38 47.306-11.609-34.286c-0.55196-2.3939-1.9493-6.4458-1.1888-9.832l-33.06 39.457c4.8152-3.1605 8.5326-1.7247 10.492-1.4619 13.666 2.3559 23.685 4.0805 35.374 6.1234z"/>
	</g>
</svg>