<svg xmlns="http://www.w3.org/2000/svg" width="24" height="24" viewBox="0 0 24 24" fill="none">
  <rect x="3" y="4" width="18" height="14" fill="#012169" stroke="#cccccc" stroke-width="0.5"/>
  <g fill="#ffffff">
    <path d="M3 4 L21 18 L21 16.5 L5.5 4 Z"/>
    <path d="M21 4 L3 18 L3 16.5 L18.5 4 Z"/>
    <path d="M11 4 L13 4 L13 18 L11 18 Z"/>
    <path d="M3 10 L21 10 L21 12 L3 12 Z"/>
  </g>
  <g fill="#c8102e">
    <path d="M3 4.8 L21 17.2 L21 18 L20.2 18 L3 5.8 Z"/>
    <path d="M21 4.8 L3 17.2 L3 18 L3.8 18 L21 5.8 Z"/>
    <path d="M11.5 4 L12.5 4 L12.5 18 L11.5 18 Z"/>
    <path d="M3 10.5 L21 10.5 L21 11.5 L3 11.5 Z"/>
  </g>
</svg>