<svg xmlns="http://www.w3.org/2000/svg" width="24" height="24" viewBox="0 0 24 24" fill="none">
  <rect x="3" y="4" width="18" height="14" fill="#ffffff" stroke="#cccccc" stroke-width="0.5"/>
  <rect x="3" y="4" width="18" height="1" fill="#b22234"/>
  <rect x="3" y="6" width="18" height="1" fill="#b22234"/>
  <rect x="3" y="8" width="18" height="1" fill="#b22234"/>
  <rect x="3" y="10" width="18" height="1" fill="#b22234"/>
  <rect x="3" y="12" width="18" height="1" fill="#b22234"/>
  <rect x="3" y="14" width="18" height="1" fill="#b22234"/>
  <rect x="3" y="16" width="18" height="1" fill="#b22234"/>
  <rect x="3" y="4" width="7" height="7" fill="#3c3b6e"/>
  <g fill="white">
    <circle cx="4.5" cy="5" r="0.2"/>
    <circle cx="5.5" cy="5" r="0.2"/>
    <circle cx="6.5" cy="5" r="0.2"/>
    <circle cx="7.5" cy="5" r="0.2"/>
    <circle cx="8.5" cy="5" r="0.2"/>
    <circle cx="5" cy="6" r="0.2"/>
    <circle cx="6" cy="6" r="0.2"/>
    <circle cx="7" cy="6" r="0.2"/>
    <circle cx="8" cy="6" r="0.2"/>
    <circle cx="4.5" cy="7" r="0.2"/>
    <circle cx="5.5" cy="7" r="0.2"/>
    <circle cx="6.5" cy="7" r="0.2"/>
    <circle cx="7.5" cy="7" r="0.2"/>
    <circle cx="8.5" cy="7" r="0.2"/>
    <circle cx="5" cy="8" r="0.2"/>
    <circle cx="6" cy="8" r="0.2"/>
    <circle cx="7" cy="8" r="0.2"/>
    <circle cx="8" cy="8" r="0.2"/>
    <circle cx="4.5" cy="9" r="0.2"/>
    <circle cx="5.5" cy="9" r="0.2"/>
    <circle cx="6.5" cy="9" r="0.2"/>
    <circle cx="7.5" cy="9" r="0.2"/>
    <circle cx="8.5" cy="9" r="0.2"/>
    <circle cx="5" cy="10" r="0.2"/>
    <circle cx="6" cy="10" r="0.2"/>
    <circle cx="7" cy="10" r="0.2"/>
    <circle cx="8" cy="10" r="0.2"/>
  </g>
</svg>